<mxfile host="app.diagrams.net" agent="Mozilla/5.0 (X11; Linux x86_64; rv:128.0) Gecko/20100101 Firefox/128.0" version="26.0.5">
  <diagram name="Page-1" id="2-unIYYfdU2qgrq39oLk">
    <mxGraphModel dx="1318" dy="729" grid="1" gridSize="10" guides="1" tooltips="1" connect="1" arrows="1" fold="1" page="1" pageScale="1" pageWidth="827" pageHeight="1169" math="0" shadow="0">
      <root>
        <mxCell id="0" />
        <mxCell id="1" parent="0" />
        <mxCell id="dfBZbd_ZJs4BrgHpo4Uy-1" value="&lt;div&gt;&lt;b&gt;&lt;font style=&quot;font-size: 26px;&quot;&gt;&lt;u&gt;SoC Measure State Diagram&lt;/u&gt;&lt;/font&gt;&lt;/b&gt;&lt;/div&gt;&lt;div&gt;See docs in repo for MermaidJS source&lt;br&gt;&lt;/div&gt;" style="text;html=1;align=center;verticalAlign=middle;whiteSpace=wrap;rounded=0;fontStyle=0" parent="1" vertex="1">
          <mxGeometry x="632.5" y="30" width="395" height="60" as="geometry" />
        </mxCell>
        <mxCell id="dfBZbd_ZJs4BrgHpo4Uy-2" value="Ready" style="rounded=1;arcSize=40;strokeWidth=2;fontColor=#FFFFFF;fillColor=#445555;strokeColor=#1B2121;fontStyle=1" parent="1" vertex="1">
          <mxGeometry x="799" y="209" width="62" height="35" as="geometry" />
        </mxCell>
        <mxCell id="dfBZbd_ZJs4BrgHpo4Uy-3" value="Initial Charge" style="rounded=1;arcSize=40;strokeWidth=2;fillColor=#44AA44;strokeColor=#1A401A;fontStyle=1;fontColor=#FFFFFF;" parent="1" vertex="1">
          <mxGeometry x="782.5" y="343" width="95" height="35" as="geometry" />
        </mxCell>
        <mxCell id="dfBZbd_ZJs4BrgHpo4Uy-5" value="num_cycles = 0" style="align=left;spacingLeft=4;rounded=1;dashed=1;fontStyle=1;fontSize=10;" parent="1" vertex="1">
          <mxGeometry x="867" y="280" width="83.5" height="20" as="geometry" />
        </mxCell>
        <mxCell id="dfBZbd_ZJs4BrgHpo4Uy-6" value="Charging" style="rounded=1;arcSize=40;strokeWidth=2;fillColor=#44AA44;strokeColor=#1A401A;fontStyle=1;fontColor=#FFFFFF;" parent="1" vertex="1">
          <mxGeometry x="794.75" y="880" width="70.5" height="35" as="geometry" />
        </mxCell>
        <mxCell id="dfBZbd_ZJs4BrgHpo4Uy-7" value="Rest post charge" style="rounded=1;arcSize=40;strokeWidth=2;fillColor=#003366;strokeColor=#00162B;fontStyle=1;fontColor=#FFFFFF;" parent="1" vertex="1">
          <mxGeometry x="770.75" y="477" width="118.5" height="35" as="geometry" />
        </mxCell>
        <mxCell id="dfBZbd_ZJs4BrgHpo4Uy-9" value="num_cycles++" style="align=left;spacingLeft=4;rounded=1;dashed=1;fontStyle=1;fontSize=10;" parent="1" vertex="1">
          <mxGeometry x="870.5" y="420" width="80" height="20" as="geometry" />
        </mxCell>
        <mxCell id="dfBZbd_ZJs4BrgHpo4Uy-10" value="Discharging" style="rounded=1;arcSize=40;strokeWidth=2;fillColor=#DD5500;strokeColor=#3B1700;fontStyle=1;fontColor=#FFFFFF;" parent="1" vertex="1">
          <mxGeometry x="785" y="612" width="90" height="35" as="geometry" />
        </mxCell>
        <mxCell id="dfBZbd_ZJs4BrgHpo4Uy-11" value="Rest post discharge" style="rounded=1;arcSize=40;strokeWidth=2;fillColor=#003366;strokeColor=#00162B;fontStyle=1;fontColor=#FFFFFF;" parent="1" vertex="1">
          <mxGeometry x="760.75" y="746" width="138.5" height="35" as="geometry" />
        </mxCell>
        <mxCell id="dfBZbd_ZJs4BrgHpo4Uy-12" value="SoC Complete" style="rounded=1;arcSize=40;strokeWidth=2;fontColor=#FFFFFF;fillColor=#7700FF;strokeColor=#1B003B;fontStyle=1" parent="1" vertex="1">
          <mxGeometry x="942.5" y="840" width="107.5" height="35" as="geometry" />
        </mxCell>
        <mxCell id="dfBZbd_ZJs4BrgHpo4Uy-13" value="SoC Canceled" style="rounded=1;arcSize=40;strokeWidth=2;fillColor=#CCCC00;strokeColor=#4A4A00;fontStyle=1;fontColor=#445555;" parent="1" vertex="1">
          <mxGeometry x="1060" y="612" width="90" height="35" as="geometry" />
        </mxCell>
        <mxCell id="dfBZbd_ZJs4BrgHpo4Uy-14" value="Error" style="rounded=1;arcSize=40;strokeWidth=2;fillColor=#AA4444;gradientColor=none;strokeColor=#421B1B;fontStyle=1;fontColor=#FFFFFF;" parent="1" vertex="1">
          <mxGeometry x="550" y="620" width="52" height="35" as="geometry" />
        </mxCell>
        <mxCell id="dfBZbd_ZJs4BrgHpo4Uy-15" value="" style="ellipse;fillColor=strokeColor;" parent="1" vertex="1">
          <mxGeometry x="823" y="120" width="14" height="14" as="geometry" />
        </mxCell>
        <mxCell id="dfBZbd_ZJs4BrgHpo4Uy-16" value="" style="ellipse;shape=endState;fillColor=strokeColor;" parent="1" vertex="1">
          <mxGeometry x="823" y="990" width="14" height="14" as="geometry" />
        </mxCell>
        <mxCell id="dfBZbd_ZJs4BrgHpo4Uy-17" value="" style="rhombus;strokeWidth=2;whiteSpace=wrap;fillColor=#445555;strokeColor=#1B2121;" parent="1" vertex="1">
          <mxGeometry x="988.5" y="730" width="28" height="28" as="geometry" />
        </mxCell>
        <mxCell id="dfBZbd_ZJs4BrgHpo4Uy-18" value="" style="curved=1;dashed=1;startArrow=none;;rounded=0;" parent="1" source="dfBZbd_ZJs4BrgHpo4Uy-3" target="dfBZbd_ZJs4BrgHpo4Uy-5" edge="1">
          <mxGeometry relative="1" as="geometry">
            <Array as="points" />
          </mxGeometry>
        </mxCell>
        <mxCell id="dfBZbd_ZJs4BrgHpo4Uy-19" value="" style="curved=1;dashed=1;startArrow=none;;rounded=0;" parent="1" source="dfBZbd_ZJs4BrgHpo4Uy-7" target="dfBZbd_ZJs4BrgHpo4Uy-9" edge="1">
          <mxGeometry relative="1" as="geometry" />
        </mxCell>
        <mxCell id="dfBZbd_ZJs4BrgHpo4Uy-20" value="" style="curved=1;startArrow=none;;rounded=0;" parent="1" source="dfBZbd_ZJs4BrgHpo4Uy-15" target="dfBZbd_ZJs4BrgHpo4Uy-2" edge="1">
          <mxGeometry relative="1" as="geometry">
            <Array as="points" />
          </mxGeometry>
        </mxCell>
        <mxCell id="dfBZbd_ZJs4BrgHpo4Uy-21" value="unexpected BC state" style="curved=1;startArrow=none;;rounded=0;labelBackgroundColor=#D1D1D1;textShadow=0;fontSize=10;textOpacity=80;fontStyle=1" parent="1" source="dfBZbd_ZJs4BrgHpo4Uy-3" target="dfBZbd_ZJs4BrgHpo4Uy-14" edge="1">
          <mxGeometry x="-0.7119" y="-6" relative="1" as="geometry">
            <Array as="points">
              <mxPoint x="610" y="440" />
            </Array>
            <mxPoint as="offset" />
          </mxGeometry>
        </mxCell>
        <mxCell id="dfBZbd_ZJs4BrgHpo4Uy-22" value="unexpected BC state" style="curved=1;startArrow=none;;rounded=0;labelBackgroundColor=#D1D1D1;textShadow=0;fontSize=10;textOpacity=80;fontStyle=1" parent="1" source="dfBZbd_ZJs4BrgHpo4Uy-6" target="dfBZbd_ZJs4BrgHpo4Uy-14" edge="1">
          <mxGeometry x="-0.7204" y="-1" relative="1" as="geometry">
            <Array as="points">
              <mxPoint x="640" y="810" />
            </Array>
            <mxPoint as="offset" />
          </mxGeometry>
        </mxCell>
        <mxCell id="dfBZbd_ZJs4BrgHpo4Uy-23" value="unexpected BC state" style="curved=1;startArrow=none;;rounded=0;labelBackgroundColor=#D1D1D1;textShadow=0;fontSize=10;textOpacity=80;fontStyle=1" parent="1" source="dfBZbd_ZJs4BrgHpo4Uy-10" target="dfBZbd_ZJs4BrgHpo4Uy-14" edge="1">
          <mxGeometry x="-0.3304" y="-13" relative="1" as="geometry">
            <mxPoint as="offset" />
          </mxGeometry>
        </mxCell>
        <mxCell id="dfBZbd_ZJs4BrgHpo4Uy-24" value="unexpected BC state" style="curved=1;startArrow=none;;rounded=0;labelBackgroundColor=#D1D1D1;textShadow=0;fontSize=10;textOpacity=80;fontStyle=1" parent="1" source="dfBZbd_ZJs4BrgHpo4Uy-7" target="dfBZbd_ZJs4BrgHpo4Uy-14" edge="1">
          <mxGeometry x="-0.5006" y="12" relative="1" as="geometry">
            <Array as="points">
              <mxPoint x="650" y="500" />
            </Array>
            <mxPoint as="offset" />
          </mxGeometry>
        </mxCell>
        <mxCell id="dfBZbd_ZJs4BrgHpo4Uy-25" value="unexpected BC state" style="curved=1;startArrow=none;;rounded=0;labelBackgroundColor=#D1D1D1;textShadow=0;fontSize=10;textOpacity=80;fontStyle=1" parent="1" source="dfBZbd_ZJs4BrgHpo4Uy-11" target="dfBZbd_ZJs4BrgHpo4Uy-14" edge="1">
          <mxGeometry x="-0.356" y="-8" relative="1" as="geometry">
            <Array as="points">
              <mxPoint x="650" y="710" />
            </Array>
            <mxPoint as="offset" />
          </mxGeometry>
        </mxCell>
        <mxCell id="dfBZbd_ZJs4BrgHpo4Uy-26" value="cancel" style="curved=1;startArrow=none;;rounded=0;labelBackgroundColor=#D1D1D1;textShadow=0;fontSize=10;textOpacity=80;fontStyle=1" parent="1" source="dfBZbd_ZJs4BrgHpo4Uy-3" target="dfBZbd_ZJs4BrgHpo4Uy-13" edge="1">
          <mxGeometry x="-0.8965" y="6" relative="1" as="geometry">
            <Array as="points">
              <mxPoint x="1070" y="400" />
            </Array>
            <mxPoint as="offset" />
          </mxGeometry>
        </mxCell>
        <mxCell id="dfBZbd_ZJs4BrgHpo4Uy-27" value="cancel" style="curved=1;startArrow=none;;rounded=0;labelBackgroundColor=#D1D1D1;textShadow=0;fontSize=10;textOpacity=80;fontStyle=1" parent="1" source="dfBZbd_ZJs4BrgHpo4Uy-6" target="dfBZbd_ZJs4BrgHpo4Uy-13" edge="1">
          <mxGeometry x="-0.913" y="11" relative="1" as="geometry">
            <Array as="points">
              <mxPoint x="1130" y="1000" />
            </Array>
            <mxPoint as="offset" />
          </mxGeometry>
        </mxCell>
        <mxCell id="dfBZbd_ZJs4BrgHpo4Uy-28" value="cancel" style="curved=1;startArrow=none;;rounded=0;labelBackgroundColor=#D1D1D1;textShadow=0;fontSize=10;textOpacity=80;fontStyle=1" parent="1" source="dfBZbd_ZJs4BrgHpo4Uy-10" target="dfBZbd_ZJs4BrgHpo4Uy-13" edge="1">
          <mxGeometry x="-0.76" y="10" relative="1" as="geometry">
            <mxPoint y="1" as="offset" />
          </mxGeometry>
        </mxCell>
        <mxCell id="dfBZbd_ZJs4BrgHpo4Uy-29" value="cancel" style="curved=1;startArrow=none;;rounded=0;labelBackgroundColor=#D1D1D1;textShadow=0;fontSize=10;textOpacity=80;fontStyle=1" parent="1" source="dfBZbd_ZJs4BrgHpo4Uy-7" target="dfBZbd_ZJs4BrgHpo4Uy-13" edge="1">
          <mxGeometry x="-0.8278" y="-14" relative="1" as="geometry">
            <Array as="points">
              <mxPoint x="1020" y="490" />
            </Array>
            <mxPoint as="offset" />
          </mxGeometry>
        </mxCell>
        <mxCell id="dfBZbd_ZJs4BrgHpo4Uy-30" value="cancel" style="curved=1;startArrow=none;;rounded=0;labelBackgroundColor=#D1D1D1;textShadow=0;fontSize=10;textOpacity=80;fontStyle=1" parent="1" source="dfBZbd_ZJs4BrgHpo4Uy-11" target="dfBZbd_ZJs4BrgHpo4Uy-13" edge="1">
          <mxGeometry x="-0.8082" y="7" relative="1" as="geometry">
            <Array as="points">
              <mxPoint x="960" y="670" />
            </Array>
            <mxPoint as="offset" />
          </mxGeometry>
        </mxCell>
        <mxCell id="dfBZbd_ZJs4BrgHpo4Uy-31" value="" style="curved=1;startArrow=none;;rounded=0;fontStyle=1" parent="1" source="dfBZbd_ZJs4BrgHpo4Uy-14" target="dfBZbd_ZJs4BrgHpo4Uy-16" edge="1">
          <mxGeometry relative="1" as="geometry">
            <Array as="points">
              <mxPoint x="550" y="900" />
            </Array>
          </mxGeometry>
        </mxCell>
        <mxCell id="dfBZbd_ZJs4BrgHpo4Uy-32" value="charge" style="curved=1;startArrow=none;;rounded=0;labelBackgroundColor=#D9D9D9;textShadow=0;fontSize=10;textOpacity=80;fontColor=#006666;fontStyle=1" parent="1" source="dfBZbd_ZJs4BrgHpo4Uy-2" target="dfBZbd_ZJs4BrgHpo4Uy-3" edge="1">
          <mxGeometry x="-0.4747" relative="1" as="geometry">
            <mxPoint as="offset" />
          </mxGeometry>
        </mxCell>
        <mxCell id="dfBZbd_ZJs4BrgHpo4Uy-33" value="charge complete" style="curved=1;startArrow=none;;rounded=0;labelBackgroundColor=#D1D1D1;textShadow=0;fontSize=10;textOpacity=80;fontStyle=1" parent="1" source="dfBZbd_ZJs4BrgHpo4Uy-3" target="dfBZbd_ZJs4BrgHpo4Uy-7" edge="1">
          <mxGeometry x="-0.3535" relative="1" as="geometry">
            <mxPoint as="offset" />
          </mxGeometry>
        </mxCell>
        <mxCell id="dfBZbd_ZJs4BrgHpo4Uy-34" value="discharge" style="curved=1;startArrow=none;;rounded=0;labelBackgroundColor=#D9D9D9;textShadow=0;fontSize=10;textOpacity=80;fontColor=#006666;fontStyle=1" parent="1" source="dfBZbd_ZJs4BrgHpo4Uy-7" target="dfBZbd_ZJs4BrgHpo4Uy-10" edge="1">
          <mxGeometry x="-0.44" relative="1" as="geometry">
            <mxPoint as="offset" />
          </mxGeometry>
        </mxCell>
        <mxCell id="dfBZbd_ZJs4BrgHpo4Uy-35" value="discharge complete" style="curved=1;startArrow=none;;rounded=0;labelBackgroundColor=#D1D1D1;textShadow=0;fontSize=10;textOpacity=80;fontStyle=1" parent="1" source="dfBZbd_ZJs4BrgHpo4Uy-10" target="dfBZbd_ZJs4BrgHpo4Uy-11" edge="1">
          <mxGeometry x="-0.5354" relative="1" as="geometry">
            <mxPoint as="offset" />
          </mxGeometry>
        </mxCell>
        <mxCell id="dfBZbd_ZJs4BrgHpo4Uy-36" value="charge" style="curved=1;startArrow=none;;rounded=0;labelBackgroundColor=#D9D9D9;textShadow=0;fontSize=10;textOpacity=80;fontColor=#006666;fontStyle=1" parent="1" source="dfBZbd_ZJs4BrgHpo4Uy-11" target="dfBZbd_ZJs4BrgHpo4Uy-6" edge="1">
          <mxGeometry x="-0.6162" relative="1" as="geometry">
            <mxPoint as="offset" />
          </mxGeometry>
        </mxCell>
        <mxCell id="dfBZbd_ZJs4BrgHpo4Uy-37" value="" style="curved=1;startArrow=none;;rounded=0;" parent="1" source="dfBZbd_ZJs4BrgHpo4Uy-6" target="dfBZbd_ZJs4BrgHpo4Uy-17" edge="1">
          <mxGeometry relative="1" as="geometry">
            <Array as="points">
              <mxPoint x="960" y="744" />
            </Array>
          </mxGeometry>
        </mxCell>
        <mxCell id="Rz1yc75t7_Dnw6ThBggD-2" value="charge complete" style="edgeLabel;html=1;align=center;verticalAlign=middle;resizable=0;points=[];labelBackgroundColor=#D1D1D1;fontSize=10;textOpacity=80;" vertex="1" connectable="0" parent="dfBZbd_ZJs4BrgHpo4Uy-37">
          <mxGeometry x="-0.6898" relative="1" as="geometry">
            <mxPoint as="offset" />
          </mxGeometry>
        </mxCell>
        <mxCell id="dfBZbd_ZJs4BrgHpo4Uy-38" value="num_cycles &lt; max_cycles&#xa;charge complete" style="curved=1;startArrow=none;;rounded=0;labelBackgroundColor=#D1D1D1;textShadow=0;fontSize=10;textOpacity=80;" parent="1" source="dfBZbd_ZJs4BrgHpo4Uy-17" target="dfBZbd_ZJs4BrgHpo4Uy-7" edge="1">
          <mxGeometry x="-0.8636" y="-4" relative="1" as="geometry">
            <Array as="points">
              <mxPoint x="980" y="560" />
            </Array>
            <mxPoint as="offset" />
          </mxGeometry>
        </mxCell>
        <mxCell id="dfBZbd_ZJs4BrgHpo4Uy-39" value="num_cycles == max_cycles&#xa;cycle complete" style="curved=1;startArrow=none;;rounded=0;labelBackgroundColor=#D1D1D1;textShadow=0;fontSize=10;textOpacity=80;fontStyle=1" parent="1" source="dfBZbd_ZJs4BrgHpo4Uy-17" target="dfBZbd_ZJs4BrgHpo4Uy-12" edge="1">
          <mxGeometry x="-0.2486" y="30" relative="1" as="geometry">
            <Array as="points" />
            <mxPoint as="offset" />
          </mxGeometry>
        </mxCell>
        <mxCell id="dfBZbd_ZJs4BrgHpo4Uy-40" value="" style="curved=1;startArrow=none;;rounded=0;fontStyle=1" parent="1" source="dfBZbd_ZJs4BrgHpo4Uy-12" target="dfBZbd_ZJs4BrgHpo4Uy-16" edge="1">
          <mxGeometry relative="1" as="geometry">
            <Array as="points">
              <mxPoint x="960" y="950" />
            </Array>
          </mxGeometry>
        </mxCell>
        <mxCell id="dfBZbd_ZJs4BrgHpo4Uy-41" value="" style="curved=1;startArrow=none;;rounded=0;" parent="1" source="dfBZbd_ZJs4BrgHpo4Uy-13" target="dfBZbd_ZJs4BrgHpo4Uy-16" edge="1">
          <mxGeometry relative="1" as="geometry">
            <Array as="points">
              <mxPoint x="1220" y="990" />
            </Array>
          </mxGeometry>
        </mxCell>
        <mxCell id="Rz1yc75t7_Dnw6ThBggD-3" value="unexpected BC state" style="curved=1;startArrow=none;;rounded=0;labelBackgroundColor=#D1D1D1;textShadow=0;fontSize=10;textOpacity=80;fontStyle=1" edge="1" parent="1" source="dfBZbd_ZJs4BrgHpo4Uy-2" target="dfBZbd_ZJs4BrgHpo4Uy-14">
          <mxGeometry x="-0.7119" y="-6" relative="1" as="geometry">
            <Array as="points">
              <mxPoint x="560" y="430" />
            </Array>
            <mxPoint x="793" y="388" as="sourcePoint" />
            <mxPoint x="589" y="630" as="targetPoint" />
            <mxPoint as="offset" />
          </mxGeometry>
        </mxCell>
      </root>
    </mxGraphModel>
  </diagram>
</mxfile>
